# xmcd
#
# Track frame offsets:
#	150
#	10552
#	25477
#	38442
#	55797
#	71532
#	85577
#	101752
#	117350
#	128872
#	144302
#	157457
#	172657
#	189200
#	201415
#	217600
#	233605
#	251260
#	265587
#	282022
#
# Disc length: 3931 seconds
# Revision: 1
# Processed by: cddbd v1.5.2PL0 Copyright (c) Steve Scherf et al.
# Submitted via: dBpowerAMP V12.0
#
DISCID=fc0f5914
DTITLE=Various Artist - TM Century GoldDisc 2021N
DYEAR=1989
DGENRE=Country
TTITLE0=Vern Gosdin - Right In The Wrong Direction
TTITLE1=Shenandoah - See If I Care
TTITLE2=Clint Black - Walkin' Away
TTITLE3=Earl Thomas Conley - Bring Back Your Love To Me
TTITLE4=Rodney Crowell - If Looks Could Kill
TTITLE5=Keith Whitley - I'm Over You
TTITLE6=Mac McAnally - Back Where I Come From
TTITLE7=Lionel Cartwright - I Watched It All (On My Radio)
TTITLE8=Ricky Van Shelton - I've Cried My Last Tear For You
TTITLE9=Doug Stone - I'd Be Better Off (In A Pine Box)
TTITLE10=The Kentucky Headhunters - Dumas Walker
TTITLE11=Robin Lee - Black Velvet
TTITLE12=Steve Wariner - The Domino Theory
TTITLE13=Tanya Tucker - Walking Shoes
TTITLE14=Kathy Mattea - She Came From Fort Worth
TTITLE15=Desert Rose Band - In Another Lifetime
TTITLE16=Alabama - Pass It On Down
TTITLE17=George Strait - Love Without End, Amen
TTITLE18=Lacy J. Dalton - Black Coffee
TTITLE19=Hank Williams, Jr. - There's A Tear In My Beer
EXTD=
EXTT0=
EXTT1=
EXTT2=
EXTT3=
EXTT4=
EXTT5=
EXTT6=
EXTT7=
EXTT8=
EXTT9=
EXTT10=
EXTT11=
EXTT12=
EXTT13=
EXTT14=
EXTT15=
EXTT16=
EXTT17=
EXTT18=
EXTT19=
PLAYORDER=
